<?xml version="1.0" encoding="utf-8"?>
<!-- Generator: Adobe Illustrator 24.0.0, SVG Export Plug-In . SVG Version: 6.00 Build 0)  -->
<svg version="1.1" id="レイヤー_1" xmlns="http://www.w3.org/2000/svg" xmlns:xlink="http://www.w3.org/1999/xlink" x="0px"
	 y="0px" viewBox="0 0 324 324" style="enable-background:new 0 0 324 324;" xml:space="preserve">
<style type="text/css">
	.st0{fill:#ED1C23;}
</style>
<g>
	<path class="st0" d="M0,0v324h324V0H0z M298.894,98.413L169.962,227.345l-24.637,24.637c-2.343,2.343-6.142,2.343-8.485,0
		l-24.637-24.637l-72.881-72.881c-2.343-2.343-2.343-6.142,0-8.485l20.394-20.394c2.343-2.343,6.142-2.343,8.485,0l68.64,68.64
		c2.342,2.342,6.139,2.342,8.481,0L270.014,69.533c2.343-2.343,6.142-2.343,8.485,0l20.394,20.394
		C301.237,92.271,301.237,96.07,298.894,98.413z"/>
</g>
</svg>
