<?xml version="1.0" encoding="utf-8"?>
<!-- Generator: Adobe Illustrator 23.1.1, SVG Export Plug-In . SVG Version: 6.00 Build 0)  -->
<svg version="1.1" id="レイヤー_1" xmlns="http://www.w3.org/2000/svg" xmlns:xlink="http://www.w3.org/1999/xlink" x="0px"
	 y="0px" viewBox="0 0 100 100" style="enable-background:new 0 0 100 100;" xml:space="preserve">
<g>
	<path style="fill:#8C8C8C;" d="M79.698,72.627c1.953,1.953,1.953,5.118,0,7.071s-5.118,1.953-7.071,0L50,57.071L27.373,79.698
		c-1.953,1.953-5.118,1.953-7.071,0s-1.953-5.118,0-7.071L42.929,50L20.302,27.373c-1.953-1.953-1.953-5.118,0-7.071
		s5.118-1.953,7.071,0L50,42.929l22.627-22.627c1.953-1.953,5.118-1.953,7.071,0s1.953,5.118,0,7.071L57.071,50L79.698,72.627z"/>
</g>
</svg>
