<?xml version="1.0" encoding="utf-8"?>
<!-- Generator: Adobe Illustrator 24.0.0, SVG Export Plug-In . SVG Version: 6.00 Build 0)  -->
<svg version="1.1" id="レイヤー_1" xmlns="http://www.w3.org/2000/svg" xmlns:xlink="http://www.w3.org/1999/xlink" x="0px"
	 y="0px" viewBox="0 0 512 512" style="enable-background:new 0 0 512 512;" xml:space="preserve">
<linearGradient id="SVGID_1_" gradientUnits="userSpaceOnUse" x1="256.5" y1="351.0559" x2="256.5" y2="821.1158" gradientTransform="matrix(1 0 0 1 0 -330)">
	<stop  offset="0" style="stop-color:#EA8928"/>
	<stop  offset="1" style="stop-color:#CF2B8F"/>
</linearGradient>
<path style="fill:url(#SVGID_1_);" d="M371.4-0.2H141.8C63.8-0.2,0.4,63.2,0.4,141.2v229.4C0.4,448.5,63.8,512,141.8,512h229.4
	c77.9,0,141.4-63.5,141.4-141.4V141.2C512.6,63.2,449.3-0.2,371.4-0.2z M467.2,370.8c0,52.9-43,95.8-95.8,95.8H141.8
	c-52.9,0-95.8-43-95.8-95.8V141.2c0-52.9,43-95.8,95.8-95.8h229.4c52.9,0,95.8,43,95.8,95.8L467.2,370.8L467.2,370.8z"/>
<linearGradient id="SVGID_2_" gradientUnits="userSpaceOnUse" x1="256.5" y1="351.0559" x2="256.5" y2="821.1158" gradientTransform="matrix(1 0 0 1 0 -330)">
	<stop  offset="0" style="stop-color:#EA8928"/>
	<stop  offset="1" style="stop-color:#CF2B8F"/>
</linearGradient>
<path style="fill:url(#SVGID_2_);" d="M256.5,123.9c-72.7,0-132,59.2-132,132s59.2,132,132,132s132-59.2,132-132
	S329.4,123.9,256.5,123.9z M256.5,342.5c-47.7,0-86.6-38.9-86.6-86.6s38.9-86.6,86.6-86.6s86.6,38.9,86.6,86.6
	C343.1,303.7,304.3,342.5,256.5,342.5z"/>
<linearGradient id="SVGID_3_" gradientUnits="userSpaceOnUse" x1="394" y1="351.0559" x2="394" y2="821.1158" gradientTransform="matrix(1 0 0 1 0 -330)">
	<stop  offset="0" style="stop-color:#EA8928"/>
	<stop  offset="1" style="stop-color:#CF2B8F"/>
</linearGradient>
<path style="fill:url(#SVGID_3_);" d="M394,85.4c-8.8,0-17.4,3.6-23.6,9.8s-9.8,14.8-9.8,23.6s3.6,17.4,9.8,23.6s14.8,9.8,23.6,9.8
	c8.8,0,17.4-3.6,23.6-9.8s9.8-14.8,9.8-23.6s-3.6-17.4-9.8-23.6C411.4,88.9,402.8,85.4,394,85.4z"/>
</svg>
