<?xml version="1.0" encoding="utf-8"?>
<!-- Generator: Adobe Illustrator 24.0.0, SVG Export Plug-In . SVG Version: 6.00 Build 0)  -->
<svg version="1.1" id="レイヤー_1" xmlns="http://www.w3.org/2000/svg" xmlns:xlink="http://www.w3.org/1999/xlink" x="0px"
	 y="0px" viewBox="0 0 283.5 283.5" style="enable-background:new 0 0 283.5 283.5;" xml:space="preserve">
<style type="text/css">
	.st0{fill:#1DA1F2;}
</style>
<path class="st0" d="M90.9,253.1c103.4,0,160-85.7,160-160c0-2.4,0-4.9-0.2-7.3c11-8,20.5-17.8,28-29.1c-10.3,4.5-21.1,7.5-32.3,8.8
	c11.7-7,20.5-18.1,24.7-31.1c-11,6.5-23.1,11.2-35.7,13.6c-21.3-22.6-56.9-23.7-79.5-2.4c-14.6,13.7-20.8,34.2-16.3,53.7
	C94.5,97.1,52.3,75.8,23.8,40.7c-14.9,25.7-7.3,58.5,17.4,75c-8.9-0.3-17.7-2.7-25.5-7c0,0.2,0,0.5,0,0.7
	c0,26.8,18.9,49.8,45.1,55.1c-8.3,2.3-17,2.6-25.4,1c7.4,22.9,28.5,38.6,52.5,39c-19.9,15.6-44.5,24.1-69.8,24.1
	c-4.5,0-8.9-0.3-13.4-0.8C30.4,244.3,60.4,253,90.9,253.1"/>
</svg>
