<svg xmlns="http://www.w3.org/2000/svg" width="512" height="512"><path fill="#222" d="M499.5 272.1L257.9 30.8C249.3 22.2 237.8 15 223.4 9c-14.4-6-27.6-9-39.5-9H43.3C31.5 0 21.4 4.3 12.8 12.8 4.3 21.4 0 31.5 0 43.3v140.6c0 11.9 3 25.1 9 39.5 6 14.4 13.2 25.8 21.8 34.1l241.6 242c8.3 8.3 18.5 12.5 30.4 12.5 11.7 0 22-4.2 30.8-12.5l165.9-166.3c8.3-8.3 12.5-18.5 12.5-30.4 0-11.7-4.2-22-12.5-30.7zM138.7 138.7c-8.5 8.4-18.6 12.7-30.6 12.7-11.9 0-22.1-4.2-30.6-12.7-8.4-8.5-12.7-18.6-12.7-30.6 0-11.9 4.2-22.1 12.7-30.6s18.6-12.7 30.6-12.7c11.9 0 22.1 4.2 30.6 12.7 8.4 8.4 12.7 18.6 12.7 30.6s-4.2 22.2-12.7 30.6z"/></svg>