<?xml version="1.0" encoding="utf-8"?>
<!-- Generator: Adobe Illustrator 22.1.0, SVG Export Plug-In . SVG Version: 6.00 Build 0)  -->
<svg version="1.1" id="レイヤー_1" xmlns="http://www.w3.org/2000/svg" xmlns:xlink="http://www.w3.org/1999/xlink" x="0px"
	 y="0px" viewBox="0 0 63.8 63.4" style="enable-background:new 0 0 63.8 63.4;" xml:space="preserve">
<path d="M62,27.4C62,27.4,62,27.4,62,27.4L36.5,1.8c-2.4-2.4-6.3-2.4-8.6,0C26.6,3,26,4.5,26,6.1c0,1.6,0.6,3.1,1.8,4.3L43,25.6H6.1
	c-3.4,0-6.1,2.7-6.1,6.1s2.7,6.1,6.1,6.1H43L27.8,53c-1.2,1.2-1.8,2.8-1.8,4.3c0,1.6,0.6,3.1,1.8,4.3c2.4,2.4,6.3,2.4,8.6,0L62,36
	c0,0,0,0,0,0c1.1-1.1,1.8-2.6,1.8-4.3C63.8,30,63.2,28.5,62,27.4z"/>
</svg>
