<?xml version="1.0" encoding="utf-8"?>
<!-- Generator: Adobe Illustrator 23.0.3, SVG Export Plug-In . SVG Version: 6.00 Build 0)  -->
<svg version="1.1" id="レイヤー_1" xmlns="http://www.w3.org/2000/svg" xmlns:xlink="http://www.w3.org/1999/xlink" x="0px"
	 y="0px" viewBox="0 0 511 511" style="enable-background:new 0 0 511 511;" xml:space="preserve">
<path style="fill:#915454;" d="M491.445,215.013h-9.123c-8.281-46.058-30.316-88.46-64.109-122.249
	c-43.727-43.731-101.871-67.813-163.711-67.813S134.518,49.033,90.791,92.763c-34.035,34.035-56.152,76.803-64.292,123.251h-8.94
	c-10.234,0-18.557,8.324-18.557,18.557v67.438c0,10.23,8.324,18.557,18.557,18.557h14.476
	c12.363,42.932,37.014,81.82,71.672,111.594c3.138,2.694,7.867,2.339,10.565-0.799c2.698-3.142,2.339-7.871-0.799-10.569
	c-8.967-7.7-17.212-16.058-24.702-24.963c11.454-4.827,23.158-8.807,34.947-12.07c5.598,9.879,11.879,19.411,18.846,28.515
	c15.263,19.949,32.499,37.501,50.869,51.969c-15.263-4.472-30.023-10.616-43.945-18.355c-3.618-2.008-8.179-0.706-10.187,2.912
	c-2.012,3.618-0.71,8.179,2.908,10.191c34.156,18.975,72.986,29.006,112.292,29.006c61.84,0,119.98-24.082,163.711-67.813
	c28.09-28.086,48.047-62.132,58.745-99.275h14.487c10.234,0,18.557-8.324,18.557-18.557V233.57
	C510.003,223.34,501.679,215.013,491.445,215.013z M467.067,215.013h-52.125c-0.624-3.883-1.314-7.766-2.117-11.645
	c-4.452-21.493-11.411-42.016-20.764-61.388c1.38-0.378,2.768-0.749,4.14-1.138c9.54-2.729,21.684-6.441,33.614-11.544
	C448.448,154.876,461.091,184.03,467.067,215.013z M399.921,216.015h-77.427c-0.257-3.758-0.538-7.517-0.869-11.267
	c-1.485-16.764-3.676-32.994-6.499-48.515c21.478-2.23,42.222-5.719,62.125-10.452c9.493,19.06,16.491,39.341,20.901,60.628
	C398.814,209.605,399.387,212.81,399.921,216.015z M407.617,103.356c4.413,4.413,8.604,8.99,12.585,13.704
	c-9.98,4.008-20.023,7.057-28.121,9.372c-2.347,0.671-4.71,1.314-7.08,1.945c-4.737-8.491-9.942-16.745-15.641-24.729
	c-14.936-20.912-32.647-39.22-52.869-54.748C350.561,59.029,381.781,77.52,407.617,103.356z M277.61,41.161
	c31.821,17.887,58.589,41.832,79.555,71.197c4.569,6.405,8.799,12.998,12.713,19.75c-18.507,4.222-37.762,7.353-57.68,9.368
	c-8.674-40.386-21.813-75.173-38.269-100.67C275.157,40.912,276.385,41.029,277.61,41.161z M254.502,39.937
	c0.183,0,0.363,0.004,0.546,0.004c18.207,24.027,32.764,59.918,42.14,102.838c-16.008,1.154-32.405,1.626-49.166,1.38
	c-11.376-0.164-23.552-0.519-36.226-1.29c9.376-42.959,23.941-78.885,42.16-102.928C254.14,39.941,254.319,39.937,254.502,39.937z
	 M235.076,40.806c-16.499,25.556-29.657,60.448-38.331,100.951c-18.811-1.637-38.452-4.347-58.101-8.823
	c4.047-7.045,8.437-13.914,13.197-20.581c20.967-29.361,47.735-53.306,79.555-71.197C232.619,41.029,233.848,40.912,235.076,40.806z
	 M193.82,156.549c-2.795,15.423-4.967,31.548-6.441,48.199c-0.331,3.75-0.612,7.509-0.865,11.267h-77.438
	c0.53-3.205,1.115-6.409,1.778-9.606c4.343-20.975,11.212-40.967,20.491-59.785C152.499,151.699,173.633,154.728,193.82,156.549z
	 M101.388,103.356c25.836-25.836,57.056-44.327,91.127-54.456c-20.226,15.528-37.938,33.836-52.869,54.748
	c-5.871,8.222-11.216,16.737-16.062,25.501c-11.747-3.255-23.411-7.228-34.823-12.039
	C92.752,112.381,96.959,107.789,101.388,103.356z M79.181,129.313c12.265,5.384,24.795,9.797,37.4,13.419
	c-9.17,19.154-16.008,39.419-20.402,60.635c-0.869,4.211-1.622,8.429-2.281,12.647H41.743
	C47.637,184.662,60.355,155.161,79.181,129.313z M17.559,305.582c-1.969,0-3.571-1.602-3.571-3.575v-67.438
	c0-1.969,1.602-3.571,3.571-3.571h216.296c4.14,0,7.493-3.353,7.493-7.493c0-4.136-3.353-7.493-7.493-7.493h-32.327
	c0.234-3.314,0.487-6.632,0.78-9.941c1.485-16.768,3.684-32.951,6.522-48.37c13.669,0.877,26.768,1.267,38.979,1.443
	c2.955,0.043,5.903,0.066,8.842,0.066c14.784,0,29.29-0.554,43.505-1.63c2.846,15.454,5.053,31.68,6.542,48.491
	c0.292,3.31,0.55,6.628,0.784,9.941H280.64c-4.136,0-7.493,3.357-7.493,7.493c0,4.14,3.357,7.493,7.493,7.493h116.226v74.581H17.559
	V305.582z M395.068,320.564c-4.316,16.109-10.288,31.727-17.864,46.589c-19.867-4.721-40.565-8.218-62.004-10.448
	c2.152-11.715,3.918-23.793,5.283-36.136h74.585L395.068,320.564L395.068,320.564z M305.422,320.564
	c-1.353,11.902-3.092,23.536-5.201,34.811c-17.06-1.294-34.542-1.832-52.413-1.571c-12.234,0.175-25.357,0.565-39.049,1.446
	c-2.097-11.236-3.828-22.826-5.177-34.686H305.422z M79.228,383.617c-13.918-19.181-24.569-40.483-31.559-63.053h50.807
	c4.304,17.138,10.347,33.782,18.101,49.653C103.988,373.835,91.474,378.241,79.228,383.617z M113.953,320.564h74.557
	c1.353,12.242,3.107,24.222,5.236,35.844c-20.156,1.817-41.255,4.846-62.37,9.906C124.004,351.706,118.187,336.369,113.953,320.564z
	 M231.321,471.741c-28.035-15.793-54.596-39.481-76.854-68.573c-5.7-7.442-10.897-15.201-15.622-23.205
	c19.567-4.444,39.123-7.138,57.856-8.772c2.963,13.61,6.476,26.639,10.522,38.885c5.973,18.047,15.349,42.121,27.957,62.054
	C233.894,472.018,232.608,471.882,231.321,471.741z M254.502,473.012c-0.183,0-0.363-0.008-0.546-0.008
	c-11.797-15.63-23.018-38.959-32.503-67.633c-3.684-11.138-6.901-22.959-9.653-35.294c12.674-0.768,24.846-1.127,36.222-1.29
	c16.76-0.238,33.154,0.234,49.162,1.388c-2.749,12.3-5.961,24.09-9.634,35.197c-9.481,28.674-20.706,52.004-32.503,67.633
	C254.865,473.008,254.686,473.012,254.502,473.012z M273.808,472.155c12.616-19.938,22-44.023,27.969-62.078
	c4.023-12.16,7.513-25.088,10.46-38.596c19.832,2.008,39.002,5.115,57.431,9.31c-4.593,7.711-9.63,15.193-15.131,22.378
	c-22.281,29.119-48.869,52.826-76.932,68.62C276.343,471.921,275.076,472.042,273.808,472.155z M407.617,409.589
	c-26.105,26.105-57.707,44.709-92.187,54.764c18.421-14.487,35.708-32.078,51.01-52.078c6.788-8.865,12.916-18.144,18.402-27.75
	c2.425,0.647,4.842,1.306,7.24,1.988c8.09,2.316,18.125,5.365,28.101,9.368C416.202,400.595,412.03,405.18,407.617,409.589z
	 M429.793,383.64c-11.922-5.095-24.058-8.807-33.591-11.532c-1.372-0.394-2.76-0.76-4.14-1.138
	c7.879-15.988,14.012-32.776,18.378-50.058h50.854C454.338,343.34,443.742,364.49,429.793,383.64z M495.017,302.011
	c0,1.969-1.602,3.571-3.571,3.571h-79.598v-74.585h79.598c1.969,0,3.571,1.606,3.571,3.575V302.011z M55.708,282.783
	c0,1.107-1.665,2.269-3.602,2.269c-2.101,0-3.544-1.162-3.544-2.269v-37.15c0-1.329,1.442-2.218,3.544-2.218
	c1.938,0,3.602,0.889,3.602,2.218v16.994c0.994-2.156,3.485-4.207,6.975-4.207c5.092,0,9.52,5.096,9.52,11.24v13.119
	c0,1.497-1.825,2.273-3.598,2.273c-1.661,0-3.544-0.776-3.544-2.273V269.66c0-2.491-2.214-4.982-4.815-4.982
	c-2.269,0-4.542,1.879-4.542,4.982v13.123H55.708z M87.93,276.081c0,2.16,0.776,2.936,3.103,2.936h2.16
	c2.047,0,3.045,1.497,3.045,2.99c0,1.552-0.998,3.045-3.045,3.045h-2.16c-6.643,0-10.242-2.713-10.242-8.971v-26.85
	c0-1.329,1.879-2.214,3.544-2.214c1.825,0,3.598,0.885,3.598,2.214v9.52h6.534c1.162,0,1.825,1.329,1.825,2.604
	c0,1.326-0.663,2.6-1.825,2.6h-6.534v12.125H87.93V276.081z M110.468,276.081c0,2.16,0.772,2.936,3.099,2.936h2.16
	c2.047,0,3.045,1.497,3.045,2.99c0,1.552-0.998,3.045-3.045,3.045h-2.16c-6.643,0-10.242-2.713-10.242-8.971v-26.85
	c0-1.329,1.883-2.214,3.544-2.214c1.828,0,3.598,0.885,3.598,2.214v9.52h6.534c1.162,0,1.825,1.329,1.825,2.604
	c0,1.326-0.663,2.6-1.825,2.6h-6.534L110.468,276.081L110.468,276.081z M132.67,260.966v1.661c1.271-2.156,3.93-4.207,7.474-4.207
	c5.536,0,9.91,5.096,9.91,11.24v4.538c0,5.926-4.538,11.353-9.688,11.353c-3.322,0-6.203-2.105-7.251-4.374v13.84
	c0,1.162-1.661,2.269-3.657,2.269c-2.047,0-3.485-1.107-3.485-2.269v-34.051c0-1.329,1.493-2.214,3.376-2.214
	C131.286,258.751,132.67,259.636,132.67,260.966z M142.912,269.66c0-2.491-2.269-4.982-5.037-4.982c-2.324,0-4.76,1.879-4.76,4.982
	v5.536c0,1.162,2.047,4.097,4.869,4.097c2.604,0,4.928-2.546,4.928-5.096V269.66z M170.378,277.742
	c0-4.869-13.123-1.825-13.123-11.072c0-3.93,2.491-8.249,9.91-8.249c4.487,0,8.803,1.552,8.803,3.598c0,0.998-0.94,3.435-2.6,3.435
	c-1.329,0-3.045-1.606-6.09-1.606c-2.768,0-3.875,1.384-3.875,2.491c0,4.043,13.287,1.275,13.287,11.127
	c0,4.932-3.653,8.086-10.187,8.086c-5.645,0-10.019-2.327-10.019-4.764c0-1.162,0.994-3.154,2.378-3.154
	c1.606,0,2.826,2.491,7.478,2.491C169.602,280.124,170.378,278.849,170.378,277.742z M191.364,265.453
	c0,1.992-1.715,3.762-3.708,3.762c-2.16,0-3.766-1.77-3.766-3.762c0-2.051,1.606-3.766,3.766-3.766
	C189.649,261.687,191.364,263.403,191.364,265.453z M191.364,281.617c0,1.996-1.715,3.766-3.708,3.766
	c-2.16,0-3.766-1.77-3.766-3.766c0-2.047,1.606-3.762,3.766-3.762C189.649,277.855,191.364,279.57,191.364,281.617z
	 M222.978,244.857c0,0.331-0.055,0.663-0.222,0.994l-19.875,40.199c-0.39,0.772-1.275,1.216-2.16,1.216
	c-1.606,0-2.659-1.271-2.659-2.437c0-0.331,0.113-0.663,0.277-0.94l19.875-40.362c0.39-0.776,1.166-1.162,1.996-1.162
	C221.54,242.366,222.978,243.36,222.978,244.857z M239.703,244.857c0,0.331-0.058,0.663-0.222,0.994l-19.879,40.199
	c-0.386,0.772-1.271,1.216-2.156,1.216c-1.606,0-2.659-1.271-2.659-2.437c0-0.331,0.109-0.663,0.277-0.94l19.875-40.362
	c0.39-0.776,1.162-1.162,1.996-1.162C238.261,242.366,239.703,243.36,239.703,244.857z M271.707,284.385
	c-0.39,0.943-1.606,1.275-2.823,1.275c-1.384,0-2.604-0.444-2.936-1.275l-4.265-12.07l-4.207,12.016
	c-0.331,0.885-1.661,1.329-3.045,1.329c-1.162,0-2.382-0.331-2.768-1.329l-8.526-21.867c-0.222-0.444-0.277-0.776-0.277-1.053
	c0-1.715,2.768-2.936,4.651-2.936c0.94,0,1.77,0.386,2.047,1.162l5.536,15.723l4.152-13.676c0.39-1.271,1.329-1.439,2.437-1.439
	c1.053,0,2.051,0.168,2.437,1.439l4.097,13.731l5.591-15.778c0.277-0.721,1.053-1.162,2.051-1.162c1.77,0,4.596,1.216,4.596,2.99
	c0,0.331-0.055,0.717-0.222,0.998L271.707,284.385z M313.399,284.385c-0.386,0.943-1.602,1.275-2.823,1.275
	c-1.384,0-2.6-0.444-2.936-1.275l-4.261-12.07l-4.211,12.016c-0.331,0.885-1.657,1.329-3.045,1.329
	c-1.162,0-2.378-0.331-2.768-1.329l-8.526-21.867c-0.222-0.444-0.277-0.776-0.277-1.053c0-1.715,2.768-2.936,4.651-2.936
	c0.94,0,1.77,0.386,2.051,1.162l5.536,15.723l4.152-13.676c0.386-1.271,1.329-1.439,2.437-1.439c1.053,0,2.047,0.168,2.433,1.439
	l4.097,13.731l5.595-15.778c0.277-0.721,1.053-1.162,2.047-1.162c1.774,0,4.596,1.216,4.596,2.99c0,0.331-0.055,0.717-0.222,0.998
	L313.399,284.385z M355.095,284.385c-0.386,0.943-1.602,1.275-2.823,1.275c-1.384,0-2.6-0.444-2.936-1.275l-4.261-12.07
	l-4.211,12.016c-0.331,0.885-1.661,1.329-3.045,1.329c-1.162,0-2.378-0.331-2.768-1.329l-8.526-21.867
	c-0.222-0.444-0.277-0.776-0.277-1.053c0-1.715,2.768-2.936,4.651-2.936c0.94,0,1.77,0.386,2.051,1.162l5.536,15.723l4.152-13.676
	c0.386-1.271,1.326-1.439,2.433-1.439c1.053,0,2.051,0.168,2.437,1.439l4.097,13.731l5.595-15.778
	c0.273-0.721,1.053-1.162,2.047-1.162c1.77,0,4.596,1.216,4.596,2.99c0,0.331-0.055,0.717-0.222,0.998L355.095,284.385z
	 M475.212,252.307l-8.082-1.173l-3.614-7.326c-1.91-3.867-5.77-6.265-10.082-6.265s-8.175,2.402-10.082,6.265l-3.614,7.326
	l-8.082,1.173c-4.269,0.62-7.743,3.552-9.076,7.649c-1.333,4.101-0.242,8.518,2.846,11.528l5.848,5.7l-1.38,8.051
	c-0.733,4.246,0.982,8.46,4.472,10.994c3.485,2.534,8.02,2.865,11.84,0.858l7.228-3.801l7.228,3.801
	c1.661,0.869,3.454,1.302,5.244,1.302c2.32,0,4.628-0.729,6.596-2.16c3.485-2.534,5.201-6.749,4.472-10.994l-1.38-8.051l5.848-5.7
	c3.088-3.01,4.175-7.427,2.846-11.528C482.954,255.859,479.477,252.927,475.212,252.307z M463.722,267.827
	c-2.647,2.585-3.856,6.304-3.232,9.949l0.433,2.515l-2.257-1.185c-3.275-1.723-7.185-1.723-10.464,0l-2.257,1.185l0.429-2.515
	c0.628-3.645-0.581-7.365-3.232-9.949l-1.825-1.782l2.522-0.366c3.661-0.53,6.827-2.83,8.468-6.148l1.127-2.289l1.131,2.289
	c1.637,3.318,4.803,5.618,8.464,6.148l2.522,0.366L463.722,267.827z"/>
</svg>
