<svg xmlns="http://www.w3.org/2000/svg" viewBox="0 0 512 512"><linearGradient id="a" gradientUnits="userSpaceOnUse" x1="256.5" y1="351.056" x2="256.5" y2="821.116" gradientTransform="translate(0 -330)"><stop offset="0" stop-color="#ea8928"/><stop offset="1" stop-color="#cf2b8f"/></linearGradient><path d="M371.4-.2H141.8C63.8-.2.4 63.2.4 141.2v229.4C.4 448.5 63.8 512 141.8 512h229.4c77.9 0 141.4-63.5 141.4-141.4V141.2c0-78-63.3-141.4-141.2-141.4zm95.8 371c0 52.9-43 95.8-95.8 95.8H141.8c-52.9 0-95.8-43-95.8-95.8V141.2c0-52.9 43-95.8 95.8-95.8h229.4c52.9 0 95.8 43 95.8 95.8l.2 229.6z" fill="url(#a)"/><linearGradient id="b" gradientUnits="userSpaceOnUse" x1="256.5" y1="351.056" x2="256.5" y2="821.116" gradientTransform="translate(0 -330)"><stop offset="0" stop-color="#ea8928"/><stop offset="1" stop-color="#cf2b8f"/></linearGradient><path d="M256.5 123.9c-72.7 0-132 59.2-132 132s59.2 132 132 132 132-59.2 132-132-59.1-132-132-132zm0 218.6c-47.7 0-86.6-38.9-86.6-86.6s38.9-86.6 86.6-86.6 86.6 38.9 86.6 86.6c0 47.8-38.8 86.6-86.6 86.6z" fill="url(#b)"/><linearGradient id="c" gradientUnits="userSpaceOnUse" x1="394" y1="351.056" x2="394" y2="821.116" gradientTransform="translate(0 -330)"><stop offset="0" stop-color="#ea8928"/><stop offset="1" stop-color="#cf2b8f"/></linearGradient><path d="M394 85.4c-8.8 0-17.4 3.6-23.6 9.8s-9.8 14.8-9.8 23.6 3.6 17.4 9.8 23.6 14.8 9.8 23.6 9.8 17.4-3.6 23.6-9.8 9.8-14.8 9.8-23.6-3.6-17.4-9.8-23.6c-6.2-6.3-14.8-9.8-23.6-9.8z" fill="url(#c)"/></svg>