<svg xmlns="http://www.w3.org/2000/svg" viewBox="0 0 283.5 283.5"><path d="M90.9 253.1c103.4 0 160-85.7 160-160 0-2.4 0-4.9-.2-7.3 11-8 20.5-17.8 28-29.1-10.3 4.5-21.1 7.5-32.3 8.8 11.7-7 20.5-18.1 24.7-31.1-11 6.5-23.1 11.2-35.7 13.6-21.3-22.6-56.9-23.7-79.5-2.4-14.6 13.7-20.8 34.2-16.3 53.7-45.1-2.2-87.3-23.5-115.8-58.6-14.9 25.7-7.3 58.5 17.4 75-8.9-.3-17.7-2.7-25.5-7v.7c0 26.8 18.9 49.8 45.1 55.1-8.3 2.3-17 2.6-25.4 1 7.4 22.9 28.5 38.6 52.5 39a113.2 113.2 0 01-69.8 24.1c-4.5 0-8.9-.3-13.4-.8 25.7 16.5 55.7 25.2 86.2 25.3" fill="#1da1f2"/></svg>