<svg xmlns="http://www.w3.org/2000/svg" viewBox="0 0 319.694 135.394"><path d="M61.886 100.904c-.604 0-3.787-.024-9.547-.075-5.762-.05-13.12-.075-22.075-.075-5.887 0-11.485.025-16.792.075-5.309.051-9.799.075-13.472.075.101-8.652.189-17.42.264-26.301.076-8.88.113-17.597.113-26.151 0-14.289-.051-25.181-.151-32.679C.125 8.277.05 3.019 0 0h12.453c-.101 6.486-.177 13.976-.226 22.471-.051 8.497-.076 15.458-.076 20.888 0 13.222.025 24.257.076 33.104.049 8.849.075 13.523.075 14.026 2.062 0 4.553.013 7.472.037 2.917.026 5.559.038 7.924.038 9.006 0 16.842-.038 23.509-.113 3.56-.043 7.119-.081 10.679-.113v10.566zm84.754-38.037c0 5.838-1.045 11.422-3.133 16.755-2.088 5.334-5.094 9.887-9.018 13.66-3.322 3.17-7.008 5.585-11.057 7.245-4.051 1.66-8.643 2.49-13.773 2.49-4.83 0-9.359-.818-13.586-2.452-4.225-1.635-8-4.038-11.32-7.208-3.824-3.672-6.779-8.2-8.867-13.585-2.088-5.383-3.133-11.067-3.133-17.056 0-5.785.893-11.106 2.68-15.962 1.785-4.855 4.566-9.219 8.34-13.094a34.897 34.897 0 0111.773-8.113c4.477-1.887 9.207-2.83 14.188-2.83 5.232 0 9.975.868 14.227 2.604 4.252 1.736 8.039 4.339 11.359 7.81 3.822 3.976 6.666 8.441 8.527 13.396 1.861 4.957 2.793 10.404 2.793 16.34zm-12.076.528c0-4.729-.768-9.332-2.301-13.811-1.535-4.478-3.914-8.251-7.133-11.32-1.961-1.912-4.289-3.383-6.98-4.415a23.324 23.324 0 00-8.416-1.547c-3.471 0-6.49.554-9.055 1.661-2.566 1.107-4.982 2.843-7.246 5.208-2.668 2.717-4.768 6.188-6.303 10.415s-2.301 8.604-2.301 13.132c0 5.132.779 9.849 2.34 14.15 1.559 4.302 4.074 8.013 7.547 11.132 1.963 1.762 4.227 3.107 6.793 4.038 2.564.932 5.281 1.396 8.15 1.396 3.17 0 6.125-.554 8.867-1.661a20.863 20.863 0 007.207-4.83c2.869-2.917 5.057-6.439 6.566-10.565 1.511-4.127 2.265-8.455 2.265-12.983zM225.205 24c0 1.107-.037 6.088-.113 14.943-.073 8.427-.111 16.855-.113 25.282 0 5.435.025 10.97.076 16.604.049 5.636.075 10.793.075 15.472 0 8.604-1.472 15.346-4.415 20.227-2.943 4.88-7.132 8.779-12.565 11.698-4.277 2.213-9.485 3.962-15.623 5.245-6.139 1.282-13.585 1.924-22.339 1.924l-1.208-9.585c5.887-.101 11.17-.415 15.849-.943 4.68-.528 8.931-1.497 12.755-2.905 5.887-2.215 9.987-5.145 12.302-8.792 2.313-3.648 3.521-8.089 3.623-13.321h-3.624c-5.988 0-12.15-.717-18.49-2.15s-11.749-3.71-16.227-6.83c-4.428-2.968-8.025-6.842-10.792-11.622-2.768-4.78-4.15-10.691-4.15-17.736 0-7.043 1.936-13.257 5.811-18.641 3.874-5.383 9.057-9.66 15.547-12.83 4.629-2.264 9.673-3.836 15.132-4.717 5.457-.883 12.061-1.323 19.81-1.323h8.679zm-11.547 40.11c0-3.618-.013-8.141-.037-13.567-.026-5.427-.089-11.079-.189-16.958h-1.961c-4.679 0-8.768.302-12.264.904-3.498.604-7.183 1.733-11.057 3.392-5.132 2.211-9.057 5.452-11.773 9.723s-4.075 9.096-4.075 14.472c0 5.527 1.345 10.25 4.037 14.17 2.691 3.919 6.302 6.959 10.83 9.12 3.068 1.457 6.629 2.638 10.68 3.542 4.049.904 8.339 1.356 12.867 1.356h2.793c0-.603.024-3.403.075-8.403.048-5.001.074-10.917.074-17.751zm106.036-1.243c0 5.838-1.045 11.422-3.132 16.755-2.088 5.334-5.094 9.887-9.019 13.66-3.321 3.17-7.007 5.585-11.057 7.245-4.051 1.66-8.642 2.49-13.773 2.49-4.83 0-9.358-.818-13.585-2.452-4.226-1.635-8-4.038-11.32-7.208-3.824-3.672-6.78-8.2-8.868-13.585-2.088-5.383-3.132-11.067-3.132-17.056 0-5.785.893-11.106 2.68-15.962 1.785-4.855 4.565-9.219 8.339-13.094a34.897 34.897 0 0111.773-8.113c4.478-1.887 9.208-2.83 14.188-2.83 5.232 0 9.975.868 14.227 2.604 4.251 1.736 8.038 4.339 11.358 7.811 3.823 3.976 6.666 8.441 8.528 13.396 1.861 4.956 2.793 10.403 2.793 16.339zm-12.075.528c0-4.729-.768-9.332-2.302-13.811-1.535-4.478-3.913-8.251-7.132-11.32-1.962-1.912-4.29-3.383-6.981-4.415a23.322 23.322 0 00-8.415-1.547c-3.472 0-6.49.554-9.056 1.661s-4.981 2.843-7.246 5.208c-2.667 2.717-4.768 6.188-6.302 10.415a38.165 38.165 0 00-2.302 13.132c0 5.132.78 9.849 2.34 14.15 1.559 4.302 4.075 8.013 7.547 11.132 1.963 1.762 4.227 3.107 6.793 4.038 2.565.932 5.282 1.396 8.15 1.396 3.17 0 6.125-.554 8.868-1.661a20.886 20.886 0 007.207-4.83c2.868-2.917 5.057-6.439 6.566-10.565 1.51-4.127 2.265-8.455 2.265-12.983z" fill="#4083cd"/></svg>