<svg xmlns="http://www.w3.org/2000/svg" viewBox="0 0 336 202"><path d="M336 202H0V0h336v202z" fill="#cfe1ee"/><path d="M125.594 107.082c-.696 0-1.613-.642-2.749-1.924-.367-.413-1.952-2.582-4.755-6.508s-4.292-5.89-4.467-5.89c-.174 0-.261 1.814-.261 5.442 0 3.629.243 5.956.728 6.982.046.101.197.325.454.673.256.349.385.568.385.66 0 .477-1.058.715-3.175.715h-.646c-1.1 0-1.649-.211-1.649-.633l.233-.33.894-.521c.403-.303.668-.744.797-1.326s.193-2.751.193-6.508-.085-5.917-.254-6.48c-.17-.563-.502-1.058-.997-1.484-.495-.426-.742-.744-.742-.955 0-.33.575-.494 1.725-.494 1.149 0 1.967.094 2.453.281.485.188.969.518 1.45.989.481.473 2.062 2.601 4.742 6.384 2.68 3.784 4.107 5.677 4.281 5.677.174 0 .261-1.413.261-4.24 0-2.826-.085-4.734-.254-5.724-.17-.99-.369-1.649-.598-1.979l-.577-.577c-.156-.156-.233-.32-.233-.495 0-.229.394-.344 1.182-.344h.619c1.759 0 2.822.138 3.188.413l.165.247c0 .238-.225.639-.673 1.202-.449.563-.733 1.164-.852 1.801s-.179 2.591-.179 5.861l-.028 2.007-.014.66v1.319l-.014 1.319c0 1.859-.027 2.904-.083 3.133-.101.431-.284.647-.55.647zm17.812-6.818v.688c0 .788-.161 1.602-.481 2.439a6.63 6.63 0 01-1.374 2.206c-1.229 1.301-2.694 1.951-4.398 1.951h-.659c-.825 0-1.59-.169-2.296-.508-1.53-.733-2.579-1.893-3.146-3.478a6.939 6.939 0 01-.427-2.336v-.688c0-.788.16-1.604.481-2.446a6.51 6.51 0 011.401-2.254c1.21-1.273 2.722-1.91 4.536-1.91h.261c1.668 0 3.083.581 4.247 1.745a6.062 6.062 0 011.381 2.15c.316.832.474 1.644.474 2.441zm-3.093.866v-.344c0-1.53-.316-2.831-.948-3.903a3.225 3.225 0 00-1.079-1.134c-.435-.27-.836-.405-1.202-.405h-.412c-.825 0-1.537.438-2.138 1.312-.6.875-.9 1.89-.9 3.044l-.027.33-.014.495v.179l.014.165.014.329c.01.11.014.221.014.33 0 1.154.376 2.277 1.127 3.367.578.834 1.319 1.251 2.227 1.251h.151l.138-.014c.925 0 1.663-.488 2.213-1.464s.822-2.154.822-3.538zm13.36-12.258c0-.294.174-.463.522-.509.063-.009 1.25-.014 3.56-.014l2.116-.027c.853 0 1.278.123 1.278.371 0 .247-.279.561-.839.941-.559.38-.918.904-1.078 1.573-.161.669-.241 2.882-.241 6.638 0 3.757.076 5.963.228 6.618.15.655.409 1.102.776 1.34.77.495 1.154.811 1.154.948 0 .275-.16.444-.481.509-.092.019-1.177.027-3.257.027h-.907l-1.512.027c-.88 0-1.319-.133-1.319-.398v-.179c0-.138.279-.385.838-.742.56-.357.919-.87 1.079-1.539s.241-2.891.241-6.666v-1.566l-.015-.633v-.632l-.041-1.883c0-1.09-.123-1.938-.371-2.543-.128-.311-.449-.623-.962-.935-.513-.309-.769-.553-.769-.726zm24.587 7.861c-.266 0-.596.116-.989.35-.394.234-.685.686-.873 1.354-.188.669-.281 2.377-.281 5.126 0 .632.114 1.137.344 1.512l.288.344c.339.366.509.591.509.674 0 .293-.16.494-.481.604-.467.155-1.301.233-2.501.233s-1.915-.05-2.144-.151c-.229-.101-.344-.312-.344-.632l.192-.344c.284-.421.439-.669.467-.742.165-.439.248-1.53.248-3.271 0-1.741-.095-2.974-.282-3.697s-.47-1.183-.845-1.375c-.175-.091-.449-.137-.825-.137s-.77.13-1.182.392c-.412.261-.763.664-1.052 1.209-.288.546-.433 1.704-.433 3.478 0 1.772.062 3.061.186 3.861.124.803.186 1.217.186 1.244 0 .247-.475.371-1.423.371s-1.757-.128-2.426-.385c-.421-.165-.632-.449-.632-.852 0-.073.172-.28.516-.619s.574-.657.694-.955c.118-.298.178-1.443.178-3.436 0-1.993-.053-3.248-.157-3.766-.105-.518-.228-.878-.364-1.079l-.344-.495c0-.183.105-.32.316-.412.586-.266 1.149-.398 1.69-.398.54 0 .904.058 1.092.172.188.114.374.357.557.729.184.371.316.557.399.557.128 0 .4-.11.817-.33s.831-.41 1.244-.57c.412-.16.993-.24 1.745-.24.751 0 1.393.137 1.924.412l.454.274c.476.321.732.481.77.481.22 0 .804-.277 1.752-.832.948-.554 1.771-.831 2.467-.831 1.457 0 2.511.628 3.161 1.883.431.834.646 2.606.646 5.318 0 1.283.048 2.087.144 2.412.097.325.308.665.633 1.018s.487.623.487.811-.174.369-.521.543c-.733.366-1.709.55-2.928.55-.468 0-.701-.133-.701-.398.092-.477.142-.751.151-.825v-1.965l-.027-2.914c0-1.456-.133-2.464-.398-3.023-.395-.826-1.097-1.238-2.104-1.238zm20.903 9.152c0 .312-.272.631-.817.956s-1.086.487-1.622.487-1.015-.181-1.436-.543c-.422-.361-.689-.543-.805-.543-.114 0-.604.211-1.471.633-.865.421-1.738.632-2.618.632-.879 0-1.628-.318-2.247-.955-.618-.637-.927-1.358-.927-2.165v-.302c0-1.906 1.699-3.275 5.099-4.109.77-.192 1.26-.353 1.471-.481.448-.274.673-.739.673-1.395s-.174-1.178-.522-1.567c-.348-.389-.886-.584-1.614-.584s-1.402.374-2.021 1.12c-.618.747-1.157 1.12-1.615 1.12-.567 0-.852-.293-.852-.879 0-.779.531-1.469 1.594-2.068 1.063-.601 2.155-.9 3.278-.9 1.122 0 1.983.158 2.584.474.6.316 1.078.759 1.436 1.326.357.568.536 2.046.536 4.433s.071 3.764.213 4.13c.143.366.388.601.735.701.632.182.948.343.948.479zm-4.645-4.302c0-.458-.147-.687-.44-.687l-.068.014h-.069c-.724 0-1.662.32-2.817.962-.77.431-1.154 1.067-1.154 1.91v.398c0 .403.149.776.447 1.12.297.344.693.516 1.188.516h.165l.068-.014c.614 0 1.2-.242 1.76-.729.55-.485.824-.984.824-1.498.036-.183.055-.339.055-.467l.014-.165.028-.646v-.714zm11.847 1.719c-1.576.109-2.364.499-2.364 1.168 0 .366.245.623.735.77s1.523.274 3.1.385c1.585.11 2.68.312 3.284.604 1.246.614 1.869 1.59 1.869 2.928s-.591 2.426-1.772 3.264c-1.182.839-2.685 1.258-4.508 1.258h-.439c-1.54 0-2.797-.33-3.773-.989-.976-.66-1.463-1.411-1.463-2.254v-.33c0-.412.295-.989.886-1.731s.887-1.146.887-1.21c.009-.073-.087-.201-.288-.385-.596-.567-.894-1.1-.894-1.594 0-.477.169-.907.508-1.292.064-.073.269-.262.612-.563.344-.303.515-.522.515-.66 0-.137-.077-.312-.233-.522l-.206-.247c-.669-.843-1.003-1.672-1.003-2.487 0-1.476.586-2.685 1.759-3.629 1.173-.943 2.547-1.415 4.123-1.415 2.281 0 4.027.215 5.236.646.211.074.316.192.316.357 0 .248-.316.431-.948.55-.633.119-.948.39-.948.812l.192 1.69a4.787 4.787 0 01-.481 2.075c-.863 1.71-2.43 2.645-4.702 2.801zm4.755 6.652v-.288c0-.633-.417-1.096-1.25-1.389-.642-.229-1.736-.344-3.285-.344h-.467c-.944 0-1.622.119-2.034.357-.752.44-1.127.972-1.127 1.595v.385c0 .504.325.964.976 1.381s1.452.626 2.405.626h.866c1.017 0 1.924-.231 2.721-.694s1.195-1.006 1.195-1.629zm-2.281-10.638v-.55l-.055-.632c0-.623-.211-1.207-.632-1.752-.422-.545-.907-.818-1.457-.818h-.275c-.567 0-1.051.284-1.449.853-.399.568-.599 1.297-.599 2.186v.563c0 .897.214 1.651.64 2.261s.964.913 1.614.913h.083c.596 0 1.1-.266 1.512-.797s.618-1.274.618-2.227zm12.534 8.15h-.302c-1.622 0-2.985-.57-4.089-1.711-1.104-1.141-1.656-2.655-1.656-4.543 0-1.887.545-3.481 1.636-4.782a5.552 5.552 0 012.096-1.581c.811-.348 1.601-.521 2.371-.521h.591c1.145 0 2.162.398 3.051 1.195.439.395.795.896 1.065 1.505.27.609.405 1.13.405 1.56v.262c0 .724-.454 1.187-1.36 1.388-.505.11-1.561.204-3.168.282-1.608.078-2.568.181-2.88.309-.485.202-.729.706-.729 1.512 0 .807.353 1.549 1.059 2.227.705.679 1.484 1.018 2.337 1.018.852 0 1.749-.201 2.693-.604.943-.403 1.498-.605 1.663-.605s.247.143.247.427c0 .54-.664 1.173-1.993 1.896a6.3 6.3 0 01-3.037.766zm2.405-8.933v-.082l-.014-.069c0-.668-.24-1.277-.722-1.827-.48-.55-1.106-.825-1.876-.825h-.082c-.761 0-1.407.303-1.938.907s-.797 1.278-.797 2.021v.22c0 .321.577.481 1.731.481h.316l.082-.015 2.076-.082.315-.027c.606-.001.909-.235.909-.702z" fill="#513d1b"/></svg>