<?xml version="1.0" encoding="utf-8"?>
<!-- Generator: Adobe Illustrator 24.0.0, SVG Export Plug-In . SVG Version: 6.00 Build 0)  -->
<svg version="1.1" id="レイヤー_1" xmlns="http://www.w3.org/2000/svg" xmlns:xlink="http://www.w3.org/1999/xlink" x="0px"
	 y="0px" viewBox="0 0 319.694 135.394" style="enable-background:new 0 0 319.694 135.394;" xml:space="preserve">
<path style="fill:#4083CD;" d="M61.886,100.904c-0.604,0-3.787-0.024-9.547-0.075c-5.762-0.05-13.12-0.075-22.075-0.075
	c-5.887,0-11.485,0.025-16.792,0.075C8.163,100.88,3.673,100.904,0,100.904c0.101-8.652,0.189-17.42,0.264-26.301
	c0.076-8.88,0.113-17.597,0.113-26.151c0-14.289-0.051-25.181-0.151-32.679C0.125,8.277,0.05,3.019,0,0h12.453
	c-0.101,6.486-0.177,13.976-0.226,22.471c-0.051,8.497-0.076,15.458-0.076,20.888c0,13.222,0.025,24.257,0.076,33.104
	c0.049,8.849,0.075,13.523,0.075,14.026c2.062,0,4.553,0.013,7.472,0.037c2.917,0.026,5.559,0.038,7.924,0.038
	c9.006,0,16.842-0.038,23.509-0.113c3.56-0.043,7.119-0.081,10.679-0.113C61.886,90.338,61.886,100.904,61.886,100.904z
	 M146.64,62.867c0,5.838-1.045,11.422-3.133,16.755c-2.088,5.334-5.094,9.887-9.018,13.66c-3.322,3.17-7.008,5.585-11.057,7.245
	c-4.051,1.66-8.643,2.49-13.773,2.49c-4.83,0-9.359-0.818-13.586-2.452c-4.225-1.635-8-4.038-11.32-7.208
	c-3.824-3.672-6.779-8.2-8.867-13.585c-2.088-5.383-3.133-11.067-3.133-17.056c0-5.785,0.893-11.106,2.68-15.962
	c1.785-4.855,4.566-9.219,8.34-13.094c3.322-3.488,7.331-6.25,11.773-8.113c4.477-1.887,9.207-2.83,14.188-2.83
	c5.232,0,9.975,0.868,14.227,2.604c4.252,1.736,8.039,4.339,11.359,7.81c3.822,3.976,6.666,8.441,8.527,13.396
	C145.708,51.484,146.64,56.931,146.64,62.867L146.64,62.867z M134.564,63.395c0-4.729-0.768-9.332-2.301-13.811
	c-1.535-4.478-3.914-8.251-7.133-11.32c-1.961-1.912-4.289-3.383-6.98-4.415c-2.686-1.03-5.539-1.555-8.416-1.547
	c-3.471,0-6.49,0.554-9.055,1.661c-2.566,1.107-4.982,2.843-7.246,5.208c-2.668,2.717-4.768,6.188-6.303,10.415
	s-2.301,8.604-2.301,13.132c0,5.132,0.779,9.849,2.34,14.15c1.559,4.302,4.074,8.013,7.547,11.132
	c1.963,1.762,4.227,3.107,6.793,4.038c2.564,0.932,5.281,1.396,8.15,1.396c3.17,0,6.125-0.554,8.867-1.661
	c2.714-1.087,5.17-2.733,7.207-4.83c2.869-2.917,5.057-6.439,6.566-10.565C133.81,72.251,134.564,67.923,134.564,63.395
	L134.564,63.395z M225.205,24c0,1.107-0.037,6.088-0.113,14.943c-0.073,8.427-0.111,16.855-0.113,25.282
	c0,5.435,0.025,10.97,0.076,16.604c0.049,5.636,0.075,10.793,0.075,15.472c0,8.604-1.472,15.346-4.415,20.227
	c-2.943,4.88-7.132,8.779-12.565,11.698c-4.277,2.213-9.485,3.962-15.623,5.245c-6.139,1.282-13.585,1.924-22.339,1.924
	l-1.208-9.585c5.887-0.101,11.17-0.415,15.849-0.943c4.68-0.528,8.931-1.497,12.755-2.905c5.887-2.215,9.987-5.145,12.302-8.792
	c2.313-3.648,3.521-8.089,3.623-13.321h-3.624c-5.988,0-12.15-0.717-18.49-2.15s-11.749-3.71-16.227-6.83
	c-4.428-2.968-8.025-6.842-10.792-11.622c-2.768-4.78-4.15-10.691-4.15-17.736c0-7.043,1.936-13.257,5.811-18.641
	c3.874-5.383,9.057-9.66,15.547-12.83c4.629-2.264,9.673-3.836,15.132-4.717C202.173,24.44,208.777,24,216.526,24H225.205
	L225.205,24z M213.658,64.11c0-3.618-0.013-8.141-0.037-13.567c-0.026-5.427-0.089-11.079-0.189-16.958h-1.961
	c-4.679,0-8.768,0.302-12.264,0.904c-3.498,0.604-7.183,1.733-11.057,3.392c-5.132,2.211-9.057,5.452-11.773,9.723
	s-4.075,9.096-4.075,14.472c0,5.527,1.345,10.25,4.037,14.17c2.691,3.919,6.302,6.959,10.83,9.12
	c3.068,1.457,6.629,2.638,10.68,3.542c4.049,0.904,8.339,1.356,12.867,1.356h2.793c0-0.603,0.024-3.403,0.075-8.403
	C213.632,76.86,213.658,70.944,213.658,64.11z M319.694,62.867c0,5.838-1.045,11.422-3.132,16.755
	c-2.088,5.334-5.094,9.887-9.019,13.66c-3.321,3.17-7.007,5.585-11.057,7.245c-4.051,1.66-8.642,2.49-13.773,2.49
	c-4.83,0-9.358-0.818-13.585-2.452c-4.226-1.635-8-4.038-11.32-7.208c-3.824-3.672-6.78-8.2-8.868-13.585
	c-2.088-5.383-3.132-11.067-3.132-17.056c0-5.785,0.893-11.106,2.68-15.962c1.785-4.855,4.565-9.219,8.339-13.094
	c3.322-3.488,7.331-6.25,11.773-8.113c4.478-1.887,9.208-2.83,14.188-2.83c5.232,0,9.975,0.868,14.227,2.604
	c4.251,1.736,8.038,4.339,11.358,7.811c3.823,3.976,6.666,8.441,8.528,13.396C318.762,51.484,319.694,56.931,319.694,62.867
	L319.694,62.867z M307.619,63.395c0-4.729-0.768-9.332-2.302-13.811c-1.535-4.478-3.913-8.251-7.132-11.32
	c-1.962-1.912-4.29-3.383-6.981-4.415c-2.686-1.03-5.539-1.555-8.415-1.547c-3.472,0-6.49,0.554-9.056,1.661
	s-4.981,2.843-7.246,5.208c-2.667,2.717-4.768,6.188-6.302,10.415c-1.532,4.208-2.311,8.654-2.302,13.132
	c0,5.132,0.78,9.849,2.34,14.15c1.559,4.302,4.075,8.013,7.547,11.132c1.963,1.762,4.227,3.107,6.793,4.038
	c2.565,0.932,5.282,1.396,8.15,1.396c3.17,0,6.125-0.554,8.868-1.661c2.714-1.088,5.169-2.733,7.207-4.83
	c2.868-2.917,5.057-6.439,6.566-10.565C306.864,72.251,307.619,67.923,307.619,63.395L307.619,63.395z"/>
</svg>
