<?xml version="1.0" encoding="utf-8"?>
<!-- Generator: Adobe Illustrator 24.2.0, SVG Export Plug-In . SVG Version: 6.00 Build 0)  -->
<svg version="1.1" id="レイヤー_1" xmlns="http://www.w3.org/2000/svg" xmlns:xlink="http://www.w3.org/1999/xlink" x="0px"
	 y="0px" viewBox="0 0 336 202" style="enable-background:new 0 0 336 202;" xml:space="preserve">
<path style="fill:#CFE1EE;" d="M336,202H0V0h336V202z"/>
<path style="fill:#513D1B;" d="M125.594,107.082c-0.696,0-1.613-0.642-2.749-1.924c-0.367-0.413-1.952-2.582-4.755-6.508
	s-4.292-5.89-4.467-5.89c-0.174,0-0.261,1.814-0.261,5.442c0,3.629,0.243,5.956,0.728,6.982c0.046,0.101,0.197,0.325,0.454,0.673
	c0.256,0.349,0.385,0.568,0.385,0.66c0,0.477-1.058,0.715-3.175,0.715h-0.646c-1.1,0-1.649-0.211-1.649-0.633l0.233-0.33
	l0.894-0.521c0.403-0.303,0.668-0.744,0.797-1.326s0.193-2.751,0.193-6.508s-0.085-5.917-0.254-6.48
	c-0.17-0.563-0.502-1.058-0.997-1.484c-0.495-0.426-0.742-0.744-0.742-0.955c0-0.33,0.575-0.494,1.725-0.494
	c1.149,0,1.967,0.094,2.453,0.281c0.485,0.188,0.969,0.518,1.45,0.989c0.481,0.473,2.062,2.601,4.742,6.384
	c2.68,3.784,4.107,5.677,4.281,5.677c0.174,0,0.261-1.413,0.261-4.24c0-2.826-0.085-4.734-0.254-5.724
	c-0.17-0.99-0.369-1.649-0.598-1.979l-0.577-0.577c-0.156-0.156-0.233-0.32-0.233-0.495c0-0.229,0.394-0.344,1.182-0.344h0.619
	c1.759,0,2.822,0.138,3.188,0.413l0.165,0.247c0,0.238-0.225,0.639-0.673,1.202c-0.449,0.563-0.733,1.164-0.852,1.801
	c-0.119,0.637-0.179,2.591-0.179,5.861l-0.028,2.007l-0.014,0.66c0,0.439,0,0.879,0,1.319l-0.014,1.319
	c0,1.859-0.027,2.904-0.083,3.133C126.043,106.866,125.86,107.082,125.594,107.082z M143.406,100.264v0.688
	c0,0.788-0.161,1.602-0.481,2.439c-0.32,0.839-0.779,1.574-1.374,2.206c-1.229,1.301-2.694,1.951-4.398,1.951h-0.659
	c-0.825,0-1.59-0.169-2.296-0.508c-1.53-0.733-2.579-1.893-3.146-3.478c-0.284-0.797-0.427-1.576-0.427-2.336v-0.688
	c0-0.788,0.16-1.604,0.481-2.446c0.32-0.861,0.788-1.612,1.401-2.254c1.21-1.273,2.722-1.91,4.536-1.91h0.041h0.22
	c1.668,0,3.083,0.581,4.247,1.745c0.604,0.604,1.064,1.321,1.381,2.15C143.248,98.655,143.406,99.467,143.406,100.264z
	 M140.313,101.13v-0.344c0-1.53-0.316-2.831-0.948-3.903c-0.284-0.485-0.644-0.863-1.079-1.134c-0.435-0.27-0.836-0.405-1.202-0.405
	h-0.412c-0.825,0-1.537,0.438-2.138,1.312c-0.6,0.875-0.9,1.89-0.9,3.044l-0.027,0.33l-0.014,0.495v0.179l0.014,0.165l0.014,0.329
	c0.01,0.11,0.014,0.221,0.014,0.33c0,1.154,0.376,2.277,1.127,3.367c0.578,0.834,1.319,1.251,2.227,1.251h0.151l0.138-0.014
	c0.925,0,1.663-0.488,2.213-1.464S140.313,102.514,140.313,101.13z M153.673,88.872c0-0.294,0.174-0.463,0.522-0.509
	c0.063-0.009,1.25-0.014,3.56-0.014l2.116-0.027c0.853,0,1.278,0.123,1.278,0.371c0,0.247-0.279,0.561-0.839,0.941
	c-0.559,0.38-0.918,0.904-1.078,1.573c-0.161,0.669-0.241,2.882-0.241,6.638c0,3.757,0.076,5.963,0.228,6.618
	c0.15,0.655,0.409,1.102,0.776,1.34c0.77,0.495,1.154,0.811,1.154,0.948c0,0.275-0.16,0.444-0.481,0.509
	c-0.092,0.019-1.177,0.027-3.257,0.027h-0.907l-1.512,0.027c-0.88,0-1.319-0.133-1.319-0.398v-0.179
	c0-0.138,0.279-0.385,0.838-0.742c0.56-0.357,0.919-0.87,1.079-1.539s0.241-2.891,0.241-6.666v-1.566l-0.015-0.633
	c0-0.21,0-0.421,0-0.632l-0.041-1.883c0-1.09-0.123-1.938-0.371-2.543c-0.128-0.311-0.449-0.623-0.962-0.935
	C153.929,89.289,153.673,89.045,153.673,88.872z M178.26,96.733c-0.266,0-0.596,0.116-0.989,0.35
	c-0.394,0.234-0.685,0.686-0.873,1.354c-0.188,0.669-0.281,2.377-0.281,5.126c0,0.632,0.114,1.137,0.344,1.512l0.288,0.344
	c0.339,0.366,0.509,0.591,0.509,0.674c0,0.293-0.16,0.494-0.481,0.604c-0.467,0.155-1.301,0.233-2.501,0.233
	s-1.915-0.05-2.144-0.151c-0.229-0.101-0.344-0.312-0.344-0.632l0.192-0.344c0.284-0.421,0.439-0.669,0.467-0.742
	c0.165-0.439,0.248-1.53,0.248-3.271c0-1.741-0.095-2.974-0.282-3.697s-0.47-1.183-0.845-1.375
	c-0.175-0.091-0.449-0.137-0.825-0.137s-0.77,0.13-1.182,0.392c-0.412,0.261-0.763,0.664-1.052,1.209
	c-0.288,0.546-0.433,1.704-0.433,3.478c0,1.772,0.062,3.061,0.186,3.861c0.124,0.803,0.186,1.217,0.186,1.244
	c0,0.247-0.475,0.371-1.423,0.371s-1.757-0.128-2.426-0.385c-0.421-0.165-0.632-0.449-0.632-0.852c0-0.073,0.172-0.28,0.516-0.619
	s0.574-0.657,0.694-0.955c0.118-0.298,0.178-1.443,0.178-3.436c0-1.993-0.053-3.248-0.157-3.766
	c-0.105-0.518-0.228-0.878-0.364-1.079l-0.344-0.495c0-0.183,0.105-0.32,0.316-0.412c0.586-0.266,1.149-0.398,1.69-0.398
	c0.54,0,0.904,0.058,1.092,0.172c0.188,0.114,0.374,0.357,0.557,0.729c0.184,0.371,0.316,0.557,0.399,0.557
	c0.128,0,0.4-0.11,0.817-0.33s0.831-0.41,1.244-0.57c0.412-0.16,0.993-0.24,1.745-0.24c0.751,0,1.393,0.137,1.924,0.412l0.454,0.274
	c0.476,0.321,0.732,0.481,0.77,0.481c0.22,0,0.804-0.277,1.752-0.832c0.948-0.554,1.771-0.831,2.467-0.831
	c1.457,0,2.511,0.628,3.161,1.883c0.431,0.834,0.646,2.606,0.646,5.318c0,1.283,0.048,2.087,0.144,2.412
	c0.097,0.325,0.308,0.665,0.633,1.018s0.487,0.623,0.487,0.811s-0.174,0.369-0.521,0.543c-0.733,0.366-1.709,0.55-2.928,0.55
	c-0.468,0-0.701-0.133-0.701-0.398c0.092-0.477,0.142-0.751,0.151-0.825v-1.965l-0.027-2.914c0-1.456-0.133-2.464-0.398-3.023
	C179.969,97.145,179.267,96.733,178.26,96.733z M199.163,105.885c0,0.312-0.272,0.631-0.817,0.956s-1.086,0.487-1.622,0.487
	s-1.015-0.181-1.436-0.543c-0.422-0.361-0.689-0.543-0.805-0.543c-0.114,0-0.604,0.211-1.471,0.633
	c-0.865,0.421-1.738,0.632-2.618,0.632c-0.879,0-1.628-0.318-2.247-0.955c-0.618-0.637-0.927-1.358-0.927-2.165v-0.302
	c0-1.906,1.699-3.275,5.099-4.109c0.77-0.192,1.26-0.353,1.471-0.481c0.448-0.274,0.673-0.739,0.673-1.395s-0.174-1.178-0.522-1.567
	c-0.348-0.389-0.886-0.584-1.614-0.584s-1.402,0.374-2.021,1.12c-0.618,0.747-1.157,1.12-1.615,1.12
	c-0.567,0-0.852-0.293-0.852-0.879c0-0.779,0.531-1.469,1.594-2.068c1.063-0.601,2.155-0.9,3.278-0.9
	c1.122,0,1.983,0.158,2.584,0.474c0.6,0.316,1.078,0.759,1.436,1.326c0.357,0.568,0.536,2.046,0.536,4.433s0.071,3.764,0.213,4.13
	c0.143,0.366,0.388,0.601,0.735,0.701C198.847,105.588,199.163,105.749,199.163,105.885z M194.518,101.583
	c0-0.458-0.147-0.687-0.44-0.687l-0.068,0.014h-0.069c-0.724,0-1.662,0.32-2.817,0.962c-0.77,0.431-1.154,1.067-1.154,1.91v0.398
	c0,0.403,0.149,0.776,0.447,1.12c0.297,0.344,0.693,0.516,1.188,0.516h0.165l0.068-0.014c0.614,0,1.2-0.242,1.76-0.729
	c0.55-0.485,0.824-0.984,0.824-1.498c0.036-0.183,0.055-0.339,0.055-0.467l0.014-0.165l0.028-0.646V101.583z M206.365,103.302
	c-1.576,0.109-2.364,0.499-2.364,1.168c0,0.366,0.245,0.623,0.735,0.77s1.523,0.274,3.1,0.385c1.585,0.11,2.68,0.312,3.284,0.604
	c1.246,0.614,1.869,1.59,1.869,2.928s-0.591,2.426-1.772,3.264c-1.182,0.839-2.685,1.258-4.508,1.258h-0.439
	c-1.54,0-2.797-0.33-3.773-0.989c-0.976-0.66-1.463-1.411-1.463-2.254v-0.33c0-0.412,0.295-0.989,0.886-1.731
	s0.887-1.146,0.887-1.21c0.009-0.073-0.087-0.201-0.288-0.385c-0.596-0.567-0.894-1.1-0.894-1.594c0-0.477,0.169-0.907,0.508-1.292
	c0.064-0.073,0.269-0.262,0.612-0.563c0.344-0.303,0.515-0.522,0.515-0.66c0-0.137-0.077-0.312-0.233-0.522l-0.206-0.247
	c-0.669-0.843-1.003-1.672-1.003-2.487c0-1.476,0.586-2.685,1.759-3.629c1.173-0.943,2.547-1.415,4.123-1.415
	c2.281,0,4.027,0.215,5.236,0.646c0.211,0.074,0.316,0.192,0.316,0.357c0,0.248-0.316,0.431-0.948,0.55
	c-0.633,0.119-0.948,0.39-0.948,0.812l0.192,1.69c-0.01,0.751-0.17,1.442-0.481,2.075
	C210.204,102.211,208.637,103.146,206.365,103.302z M211.12,109.954v-0.288c0-0.633-0.417-1.096-1.25-1.389
	c-0.642-0.229-1.736-0.344-3.285-0.344h-0.467c-0.944,0-1.622,0.119-2.034,0.357c-0.752,0.44-1.127,0.972-1.127,1.595v0.385
	c0,0.504,0.325,0.964,0.976,1.381s1.452,0.626,2.405,0.626h0.866c1.017,0,1.924-0.231,2.721-0.694S211.12,110.577,211.12,109.954z
	 M208.839,99.316v-0.55l-0.055-0.632c0-0.623-0.211-1.207-0.632-1.752c-0.422-0.545-0.907-0.818-1.457-0.818h-0.275
	c-0.567,0-1.051,0.284-1.449,0.853c-0.399,0.568-0.599,1.297-0.599,2.186v0.563c0,0.897,0.214,1.651,0.64,2.261
	s0.964,0.913,1.614,0.913h0.083c0.596,0,1.1-0.266,1.512-0.797S208.839,100.269,208.839,99.316z M221.373,107.466h-0.302
	c-1.622,0-2.985-0.57-4.089-1.711c-1.104-1.141-1.656-2.655-1.656-4.543c0-1.887,0.545-3.481,1.636-4.782
	c0.586-0.705,1.285-1.232,2.096-1.581c0.811-0.348,1.601-0.521,2.371-0.521h0.591c1.145,0,2.162,0.398,3.051,1.195
	c0.439,0.395,0.795,0.896,1.065,1.505c0.27,0.609,0.405,1.13,0.405,1.56v0.262c0,0.724-0.454,1.187-1.36,1.388
	c-0.505,0.11-1.561,0.204-3.168,0.282c-1.608,0.078-2.568,0.181-2.88,0.309c-0.485,0.202-0.729,0.706-0.729,1.512
	c0,0.807,0.353,1.549,1.059,2.227c0.705,0.679,1.484,1.018,2.337,1.018c0.852,0,1.749-0.201,2.693-0.604
	c0.943-0.403,1.498-0.605,1.663-0.605s0.247,0.143,0.247,0.427c0,0.54-0.664,1.173-1.993,1.896
	C223.467,107.209,222.454,107.466,221.373,107.466z M223.778,98.533v-0.082l-0.014-0.069c0-0.668-0.24-1.277-0.722-1.827
	c-0.48-0.55-1.106-0.825-1.876-0.825h-0.082c-0.761,0-1.407,0.303-1.938,0.907s-0.797,1.278-0.797,2.021v0.22
	c0,0.321,0.577,0.481,1.731,0.481h0.316l0.082-0.015l2.076-0.082l0.315-0.027C223.475,99.234,223.778,99,223.778,98.533z"/>
</svg>
