<svg xmlns="http://www.w3.org/2000/svg" viewBox="0 0 511 511"><path d="M491.445 215.013h-9.123c-8.281-46.058-30.316-88.46-64.109-122.249-43.727-43.731-101.871-67.813-163.711-67.813S134.518 49.033 90.791 92.763c-34.035 34.035-56.152 76.803-64.292 123.251h-8.94c-10.234 0-18.557 8.324-18.557 18.557v67.438c0 10.23 8.324 18.557 18.557 18.557h14.476c12.363 42.932 37.014 81.82 71.672 111.594a7.495 7.495 0 009.766-11.368 217.02 217.02 0 01-24.702-24.963c11.454-4.827 23.158-8.807 34.947-12.07a248.427 248.427 0 0018.846 28.515c15.263 19.949 32.499 37.501 50.869 51.969a214.745 214.745 0 01-43.945-18.355 7.491 7.491 0 00-10.187 2.912 7.492 7.492 0 002.908 10.191c34.156 18.975 72.986 29.006 112.292 29.006 61.84 0 119.98-24.082 163.711-67.813 28.09-28.086 48.047-62.132 58.745-99.275h14.487c10.234 0 18.557-8.324 18.557-18.557V233.57c.002-10.23-8.322-18.557-18.556-18.557zm-24.378 0h-52.125a264.106 264.106 0 00-2.117-11.645c-4.452-21.493-11.411-42.016-20.764-61.388 1.38-.378 2.768-.749 4.14-1.138 9.54-2.729 21.684-6.441 33.614-11.544 18.633 25.578 31.276 54.732 37.252 85.715zm-67.146 1.002h-77.427a572.179 572.179 0 00-.869-11.267c-1.485-16.764-3.676-32.994-6.499-48.515 21.478-2.23 42.222-5.719 62.125-10.452 9.493 19.06 16.491 39.341 20.901 60.628a249.422 249.422 0 011.769 9.606zm7.696-112.659a221.25 221.25 0 0112.585 13.704c-9.98 4.008-20.023 7.057-28.121 9.372-2.347.671-4.71 1.314-7.08 1.945a263.466 263.466 0 00-15.641-24.729c-14.936-20.912-32.647-39.22-52.869-54.748 34.07 10.129 65.29 28.62 91.126 54.456zM277.61 41.161c31.821 17.887 58.589 41.832 79.555 71.197a249.122 249.122 0 0112.713 19.75c-18.507 4.222-37.762 7.353-57.68 9.368-8.674-40.386-21.813-75.173-38.269-100.67 1.228.106 2.456.223 3.681.355zm-23.108-1.224c.183 0 .363.004.546.004 18.207 24.027 32.764 59.918 42.14 102.838-16.008 1.154-32.405 1.626-49.166 1.38-11.376-.164-23.552-.519-36.226-1.29 9.376-42.959 23.941-78.885 42.16-102.928.184 0 .363-.004.546-.004zm-19.426.869c-16.499 25.556-29.657 60.448-38.331 100.951-18.811-1.637-38.452-4.347-58.101-8.823a247.893 247.893 0 0113.197-20.581c20.967-29.361 47.735-53.306 79.555-71.197 1.223-.127 2.452-.244 3.68-.35zM193.82 156.549c-2.795 15.423-4.967 31.548-6.441 48.199-.331 3.75-.612 7.509-.865 11.267h-77.438c.53-3.205 1.115-6.409 1.778-9.606 4.343-20.975 11.212-40.967 20.491-59.785 21.154 5.075 42.288 8.104 62.475 9.925zm-92.432-53.193c25.836-25.836 57.056-44.327 91.127-54.456-20.226 15.528-37.938 33.836-52.869 54.748a262.085 262.085 0 00-16.062 25.501c-11.747-3.255-23.411-7.228-34.823-12.039a222.357 222.357 0 0112.627-13.754zm-22.207 25.957c12.265 5.384 24.795 9.797 37.4 13.419-9.17 19.154-16.008 39.419-20.402 60.635a264.818 264.818 0 00-2.281 12.647H41.743a214.163 214.163 0 0137.438-86.701zM17.559 305.582a3.576 3.576 0 01-3.571-3.575v-67.438a3.575 3.575 0 013.571-3.571h216.296a7.493 7.493 0 000-14.986h-32.327c.234-3.314.487-6.632.78-9.941 1.485-16.768 3.684-32.951 6.522-48.37 13.669.877 26.768 1.267 38.979 1.443a607.8 607.8 0 008.842.066c14.784 0 29.29-.554 43.505-1.63 2.846 15.454 5.053 31.68 6.542 48.491.292 3.31.55 6.628.784 9.941H280.64a7.493 7.493 0 000 14.986h116.226v74.581H17.559v.003zm377.509 14.982a238.42 238.42 0 01-17.864 46.589c-19.867-4.721-40.565-8.218-62.004-10.448 2.152-11.715 3.918-23.793 5.283-36.136h74.585v-.005zm-89.646 0c-1.353 11.902-3.092 23.536-5.201 34.811-17.06-1.294-34.542-1.832-52.413-1.571-12.234.175-25.357.565-39.049 1.446a492.903 492.903 0 01-5.177-34.686h101.84zM79.228 383.617a216.33 216.33 0 01-31.559-63.053h50.807c4.304 17.138 10.347 33.782 18.101 49.653-12.589 3.618-25.103 8.024-37.349 13.4zm34.725-63.053h74.557a510.216 510.216 0 005.236 35.844c-20.156 1.817-41.255 4.846-62.37 9.906-7.372-14.608-13.189-29.945-17.423-45.75zm117.368 151.177c-28.035-15.793-54.596-39.481-76.854-68.573a232.553 232.553 0 01-15.622-23.205c19.567-4.444 39.123-7.138 57.856-8.772 2.963 13.61 6.476 26.639 10.522 38.885 5.973 18.047 15.349 42.121 27.957 62.054a174.398 174.398 0 01-3.859-.389zm23.181 1.271c-.183 0-.363-.008-.546-.008-11.797-15.63-23.018-38.959-32.503-67.633-3.684-11.138-6.901-22.959-9.653-35.294 12.674-.768 24.846-1.127 36.222-1.29 16.76-.238 33.154.234 49.162 1.388-2.749 12.3-5.961 24.09-9.634 35.197-9.481 28.674-20.706 52.004-32.503 67.633-.182.003-.361.007-.545.007zm19.306-.857c12.616-19.938 22-44.023 27.969-62.078 4.023-12.16 7.513-25.088 10.46-38.596 19.832 2.008 39.002 5.115 57.431 9.31a232.557 232.557 0 01-15.131 22.378c-22.281 29.119-48.869 52.826-76.932 68.62-1.262.132-2.529.253-3.797.366zm133.809-62.566c-26.105 26.105-57.707 44.709-92.187 54.764 18.421-14.487 35.708-32.078 51.01-52.078a247.543 247.543 0 0018.402-27.75c2.425.647 4.842 1.306 7.24 1.988 8.09 2.316 18.125 5.365 28.101 9.368-3.981 4.714-8.153 9.299-12.566 13.708zm22.176-25.949c-11.922-5.095-24.058-8.807-33.591-11.532-1.372-.394-2.76-.76-4.14-1.138 7.879-15.988 14.012-32.776 18.378-50.058h50.854a214.18 214.18 0 01-31.501 62.728zm65.224-81.629a3.575 3.575 0 01-3.571 3.571h-79.598v-74.585h79.598a3.579 3.579 0 013.571 3.575v67.439zM55.708 282.783c0 1.107-1.665 2.269-3.602 2.269-2.101 0-3.544-1.162-3.544-2.269v-37.15c0-1.329 1.442-2.218 3.544-2.218 1.938 0 3.602.889 3.602 2.218v16.994c.994-2.156 3.485-4.207 6.975-4.207 5.092 0 9.52 5.096 9.52 11.24v13.119c0 1.497-1.825 2.273-3.598 2.273-1.661 0-3.544-.776-3.544-2.273V269.66c0-2.491-2.214-4.982-4.815-4.982-2.269 0-4.542 1.879-4.542 4.982v13.123h.004zm32.222-6.702c0 2.16.776 2.936 3.103 2.936h2.16c2.047 0 3.045 1.497 3.045 2.99 0 1.552-.998 3.045-3.045 3.045h-2.16c-6.643 0-10.242-2.713-10.242-8.971v-26.85c0-1.329 1.879-2.214 3.544-2.214 1.825 0 3.598.885 3.598 2.214v9.52h6.534c1.162 0 1.825 1.329 1.825 2.604 0 1.326-.663 2.6-1.825 2.6h-6.534v12.125h-.003v.001zm22.538 0c0 2.16.772 2.936 3.099 2.936h2.16c2.047 0 3.045 1.497 3.045 2.99 0 1.552-.998 3.045-3.045 3.045h-2.16c-6.643 0-10.242-2.713-10.242-8.971v-26.85c0-1.329 1.883-2.214 3.544-2.214 1.828 0 3.598.885 3.598 2.214v9.52h6.534c1.162 0 1.825 1.329 1.825 2.604 0 1.326-.663 2.6-1.825 2.6h-6.534l.001 12.126zm22.202-15.115v1.661a8.705 8.705 0 017.474-4.207c5.536 0 9.91 5.096 9.91 11.24v4.538c0 5.926-4.538 11.353-9.688 11.353-3.322 0-6.203-2.105-7.251-4.374v13.84c0 1.162-1.661 2.269-3.657 2.269-2.047 0-3.485-1.107-3.485-2.269v-34.051c0-1.329 1.493-2.214 3.376-2.214 1.937-.001 3.321.884 3.321 2.214zm10.242 8.694c0-2.491-2.269-4.982-5.037-4.982-2.324 0-4.76 1.879-4.76 4.982v5.536c0 1.162 2.047 4.097 4.869 4.097 2.604 0 4.928-2.546 4.928-5.096v-4.537zm27.466 8.082c0-4.869-13.123-1.825-13.123-11.072 0-3.93 2.491-8.249 9.91-8.249 4.487 0 8.803 1.552 8.803 3.598 0 .998-.94 3.435-2.6 3.435-1.329 0-3.045-1.606-6.09-1.606-2.768 0-3.875 1.384-3.875 2.491 0 4.043 13.287 1.275 13.287 11.127 0 4.932-3.653 8.086-10.187 8.086-5.645 0-10.019-2.327-10.019-4.764 0-1.162.994-3.154 2.378-3.154 1.606 0 2.826 2.491 7.478 2.491 3.262-.001 4.038-1.276 4.038-2.383zm20.986-12.289c0 1.992-1.715 3.762-3.708 3.762-2.16 0-3.766-1.77-3.766-3.762 0-2.051 1.606-3.766 3.766-3.766 1.993 0 3.708 1.716 3.708 3.766zm0 16.164c0 1.996-1.715 3.766-3.708 3.766-2.16 0-3.766-1.77-3.766-3.766 0-2.047 1.606-3.762 3.766-3.762 1.993 0 3.708 1.715 3.708 3.762zm31.614-36.76c0 .331-.055.663-.222.994l-19.875 40.199c-.39.772-1.275 1.216-2.16 1.216-1.606 0-2.659-1.271-2.659-2.437 0-.331.113-.663.277-.94l19.875-40.362c.39-.776 1.166-1.162 1.996-1.162 1.33.001 2.768.995 2.768 2.492zm16.725 0c0 .331-.058.663-.222.994l-19.879 40.199c-.386.772-1.271 1.216-2.156 1.216-1.606 0-2.659-1.271-2.659-2.437 0-.331.109-.663.277-.94l19.875-40.362c.39-.776 1.162-1.162 1.996-1.162 1.326.001 2.768.995 2.768 2.492zm32.004 39.528c-.39.943-1.606 1.275-2.823 1.275-1.384 0-2.604-.444-2.936-1.275l-4.265-12.07-4.207 12.016c-.331.885-1.661 1.329-3.045 1.329-1.162 0-2.382-.331-2.768-1.329l-8.526-21.867c-.222-.444-.277-.776-.277-1.053 0-1.715 2.768-2.936 4.651-2.936.94 0 1.77.386 2.047 1.162l5.536 15.723 4.152-13.676c.39-1.271 1.329-1.439 2.437-1.439 1.053 0 2.051.168 2.437 1.439l4.097 13.731 5.591-15.778c.277-.721 1.053-1.162 2.051-1.162 1.77 0 4.596 1.216 4.596 2.99 0 .331-.055.717-.222.998l-8.526 21.922zm41.692 0c-.386.943-1.602 1.275-2.823 1.275-1.384 0-2.6-.444-2.936-1.275l-4.261-12.07-4.211 12.016c-.331.885-1.657 1.329-3.045 1.329-1.162 0-2.378-.331-2.768-1.329l-8.526-21.867c-.222-.444-.277-.776-.277-1.053 0-1.715 2.768-2.936 4.651-2.936.94 0 1.77.386 2.051 1.162l5.536 15.723 4.152-13.676c.386-1.271 1.329-1.439 2.437-1.439 1.053 0 2.047.168 2.433 1.439l4.097 13.731 5.595-15.778c.277-.721 1.053-1.162 2.047-1.162 1.774 0 4.596 1.216 4.596 2.99 0 .331-.055.717-.222.998l-8.526 21.922zm41.696 0c-.386.943-1.602 1.275-2.823 1.275-1.384 0-2.6-.444-2.936-1.275l-4.261-12.07-4.211 12.016c-.331.885-1.661 1.329-3.045 1.329-1.162 0-2.378-.331-2.768-1.329l-8.526-21.867c-.222-.444-.277-.776-.277-1.053 0-1.715 2.768-2.936 4.651-2.936.94 0 1.77.386 2.051 1.162l5.536 15.723 4.152-13.676c.386-1.271 1.326-1.439 2.433-1.439 1.053 0 2.051.168 2.437 1.439l4.097 13.731 5.595-15.778c.273-.721 1.053-1.162 2.047-1.162 1.77 0 4.596 1.216 4.596 2.99 0 .331-.055.717-.222.998l-8.526 21.922zm120.117-32.078l-8.082-1.173-3.614-7.326c-1.91-3.867-5.77-6.265-10.082-6.265s-8.175 2.402-10.082 6.265l-3.614 7.326-8.082 1.173a11.172 11.172 0 00-9.076 7.649 11.175 11.175 0 002.846 11.528l5.848 5.7-1.38 8.051c-.733 4.246.982 8.46 4.472 10.994a11.17 11.17 0 0011.84.858l7.228-3.801 7.228 3.801a11.29 11.29 0 005.244 1.302c2.32 0 4.628-.729 6.596-2.16a11.177 11.177 0 004.472-10.994l-1.38-8.051 5.848-5.7c3.088-3.01 4.175-7.427 2.846-11.528a11.18 11.18 0 00-9.076-7.649zm-11.49 15.52a11.253 11.253 0 00-3.232 9.949l.433 2.515-2.257-1.185a11.238 11.238 0 00-10.464 0l-2.257 1.185.429-2.515a11.23 11.23 0 00-3.232-9.949l-1.825-1.782 2.522-.366a11.248 11.248 0 008.468-6.148l1.127-2.289 1.131 2.289a11.234 11.234 0 008.464 6.148l2.522.366-1.829 1.782z" fill="#915454"/></svg>